<svg width="41" height="41" viewBox="0 0 41 41" fill="none" xmlns="http://www.w3.org/2000/svg">
<rect width="41" height="41" rx="20.5" fill="#1778F2"/>
<g clip-path="url(#clip0_0_1)">
<path d="M17.932 33.0001C17.6682 32.8442 17.6009 32.5875 17.6009 32.2962C17.6009 31.7516 17.6009 31.207 17.6009 30.6619C17.6009 27.979 17.6009 25.2961 17.6009 22.6132C17.6009 22.3183 17.4635 22.1706 17.1888 22.1703C16.4111 22.1703 15.6333 22.1703 14.8556 22.1703C14.7625 22.1703 14.6685 22.1713 14.5759 22.1601C14.1803 22.1117 14.0199 21.9269 14.0021 21.506C14.0002 21.4654 14.0011 21.4248 14.0011 21.3842C14.0011 20.1645 14.0002 18.9453 14.0011 17.7256C14.0016 17.1668 14.1817 16.981 14.7134 16.9805C15.5847 16.9805 16.4555 16.9732 17.3268 16.9854C17.5457 16.9884 17.6074 16.9126 17.6046 16.6921C17.5948 15.9036 17.5896 15.1146 17.6037 14.3265C17.6214 13.3317 17.7271 12.352 18.1022 11.4207C18.8173 9.64319 20.0978 8.58431 21.8764 8.15656C22.3314 8.04705 22.7939 7.99719 23.263 8.00012C24.2975 8.00697 25.332 8.0011 26.3665 8.00306C26.7827 8.00354 26.9913 8.20202 26.9941 8.63809C27.0021 9.83336 27.0016 11.0281 26.9946 12.2234C26.9918 12.6942 26.7851 12.8897 26.2945 12.8976C25.7113 12.9064 25.1276 12.8966 24.5444 12.902C24.2498 12.9049 23.9547 12.8971 23.6624 12.9626C23.1363 13.0809 22.815 13.4363 22.7546 13.9951C22.6546 14.9268 22.7331 15.8625 22.7074 16.7962C22.7018 17.0035 22.8356 16.9801 22.9604 16.9801C24.0183 16.9801 25.0762 16.9801 26.1336 16.9801C26.6705 16.9801 26.852 17.1629 26.8529 17.7182C26.8548 18.9458 26.8543 20.1733 26.852 21.4013C26.851 21.9616 26.6593 22.1659 26.1191 22.1689C25.0846 22.1742 24.0501 22.1703 23.0156 22.1708C22.7088 22.1708 22.7079 22.1723 22.7079 22.4979C22.7079 25.7581 22.7055 29.0183 22.7116 32.2786C22.7121 32.5763 22.6518 32.8227 22.4123 33.0006H17.932V33.0001Z" fill="white"/>
</g>
<defs>
<clipPath id="clip0_0_1">
<rect width="13" height="25" fill="white" transform="translate(14 8)"/>
</clipPath>
</defs>
</svg>
